<svg width="20" height="20" viewBox="0 0 20 20" fill="none" xmlns="http://www.w3.org/2000/svg">
<g id="001-box" clip-path="url(#clip0_14_2548)">
<path id="Vector" d="M19.9869 15.6497C19.5259 18.1478 17.345 19.961 14.8012 19.961C11.8934 19.961 9.52778 17.5954 9.52778 14.6876C9.52778 11.7799 11.8934 9.41423 14.8012 9.41423C15.2834 9.41423 15.7615 9.47947 16.2222 9.6081C16.6378 9.72415 16.8806 10.1551 16.7646 10.5707C16.6485 10.9862 16.2175 11.229 15.802 11.113C15.4781 11.0226 15.1413 10.9767 14.8012 10.9767C12.755 10.9767 11.0903 12.6414 11.0903 14.6876C11.0903 16.7338 12.755 18.3985 14.8012 18.3985C16.5914 18.3985 18.1261 17.1232 18.4503 15.3661C18.5286 14.9418 18.9361 14.6614 19.3604 14.7396C19.7847 14.8179 20.0652 15.2254 19.9869 15.6497ZM13.7911 13.7837C13.486 13.4785 12.9913 13.4785 12.6863 13.7837C12.3812 14.0888 12.3812 14.5834 12.6863 14.8885L13.8366 16.0388C14.1027 16.3049 14.453 16.438 14.8034 16.438C15.1514 16.438 15.4994 16.3066 15.7651 16.0438L19.1789 12.6648C19.4855 12.3613 19.4881 11.8666 19.1845 11.56C18.881 11.2533 18.3864 11.2507 18.0797 11.5543L14.804 14.7965L13.7911 13.7837ZM19.9998 2.34398V4.68771C19.9998 5.11919 19.6501 5.46895 19.2186 5.46895V8.59393C19.2186 9.02541 18.8688 9.37517 18.4374 9.37517C18.0059 9.37517 17.6561 9.02541 17.6561 8.59393V5.46895H2.34373V16.8751C2.34373 17.7367 3.04466 18.4376 3.90622 18.4376H8.86712C9.2986 18.4376 9.64836 18.7874 9.64836 19.2188C9.64836 19.6503 9.2986 20.0001 8.86712 20.0001H3.90622C2.18311 20.0001 0.781244 18.5982 0.781244 16.8751V5.46895C0.349763 5.46895 0 5.11919 0 4.68771V2.34398C0 1.05164 1.0514 0.000244141 2.34373 0.000244141H17.6561C18.9484 0.000244141 19.9998 1.05164 19.9998 2.34398ZM1.56249 3.90646H18.4374V2.34398C18.4374 1.9132 18.0869 1.56273 17.6561 1.56273H2.34373C1.91295 1.56273 1.56249 1.9132 1.56249 2.34398V3.90646ZM12.4999 7.81268C12.4999 7.3812 12.1501 7.03144 11.7187 7.03144H8.20306C7.77158 7.03144 7.42182 7.3812 7.42182 7.81268C7.42182 8.24416 7.77158 8.59393 8.20306 8.59393H11.7187C12.1501 8.59393 12.4999 8.24416 12.4999 7.81268Z" fill="#28C76F"/>
</g>
<defs>
<clipPath id="clip0_14_2548">
<rect width="20" height="20" fill="white"/>
</clipPath>
</defs>
</svg>
