<svg width="20" height="19" viewBox="0 0 20 19" fill="none" xmlns="http://www.w3.org/2000/svg">
<g id="006-discount" clip-path="url(#clip0_14_362)">
<path id="Vector" d="M6.72385 9.16579C5.45173 9.16579 4.41677 8.1669 4.41677 6.93911C4.41677 5.71133 5.45173 4.71244 6.72385 4.71244C7.99598 4.71244 9.03094 5.71133 9.03094 6.93911C9.03094 8.1669 7.99598 9.16579 6.72385 9.16579ZM6.72385 6.19689C6.29981 6.19689 5.95483 6.52985 5.95483 6.93911C5.95483 7.34838 6.29981 7.68134 6.72385 7.68134C7.1479 7.68134 7.49288 7.34838 7.49288 6.93911C7.49288 6.52985 7.14793 6.19689 6.72385 6.19689ZM13.0683 14.3614C11.7962 14.3614 10.7612 13.3625 10.7612 12.1347C10.7612 10.9069 11.7962 9.90802 13.0683 9.90802C14.3405 9.90802 15.3754 10.9069 15.3754 12.1347C15.3754 13.3625 14.3405 14.3614 13.0683 14.3614ZM13.0683 11.3925C12.6443 11.3925 12.2993 11.7254 12.2993 12.1347C12.2993 12.544 12.6443 12.8769 13.0683 12.8769C13.4924 12.8769 13.8374 12.544 13.8374 12.1347C13.8374 11.7254 13.4924 11.3925 13.0683 11.3925ZM8.29536 13.9903L13.2837 5.08355H11.5353L6.54702 13.9903H8.29536ZM7.78054 18.9998C7.61789 18.9998 7.45462 18.9795 7.29497 18.9382C6.78503 18.8063 6.35357 18.4711 6.11113 18.0185L5.6018 17.0676C5.54051 16.9531 5.41516 16.8831 5.28158 16.8891L4.17368 16.9388C3.64601 16.9627 3.12976 16.7694 2.75648 16.4092C2.38319 16.0489 2.18317 15.5503 2.2077 15.0414L2.25926 13.972C2.26545 13.8434 2.19286 13.7221 2.07435 13.663L1.08907 13.1714C0.620119 12.9374 0.272788 12.5209 0.13617 12.0287C-0.000486106 11.5366 0.0845684 11.0083 0.369493 10.5794L0.968066 9.67822C1.04005 9.56982 1.04005 9.42973 0.968066 9.32132L0.369416 8.42019C0.0844915 7.99126 -0.000563011 7.46301 0.136093 6.97084C0.272711 6.47867 0.620042 6.06221 1.089 5.82819L2.07427 5.33658C2.19278 5.27746 2.26538 5.1561 2.25919 5.02748L2.20762 3.95819C2.18309 3.44921 2.38312 2.95066 2.7564 2.59038C3.12969 2.2301 3.64636 2.03698 4.17357 2.06073L5.2815 2.11046C5.41431 2.11658 5.54044 2.0464 5.60173 1.93203L6.11105 0.981087C6.35349 0.528478 6.78495 0.193252 7.2949 0.0613589C7.80491 -0.0705345 8.35223 0.0115556 8.79665 0.28655L9.73037 0.864261C9.84272 0.93377 9.9878 0.933808 10.1002 0.864261L11.0339 0.28655C11.4783 0.0115556 12.0256 -0.0705345 12.5356 0.0613589C13.0456 0.193252 13.477 0.528478 13.7195 0.981087L14.2288 1.93199C14.2901 2.0464 14.4151 2.11647 14.549 2.11046L15.6569 2.06073C16.185 2.03713 16.7009 2.2301 17.0741 2.59038C17.4474 2.95066 17.6474 3.44921 17.6229 3.95819L17.5713 5.02751C17.5651 5.1561 17.6377 5.27746 17.7562 5.33658L18.7415 5.82815C19.2105 6.06218 19.5578 6.47864 19.6944 6.97081C19.8311 7.46298 19.746 7.99122 19.4611 8.42015L18.8625 9.32132C18.7906 9.42973 18.7906 9.56982 18.8625 9.67822L19.4611 10.5794C19.746 11.0083 19.8311 11.5366 19.6944 12.0287C19.5578 12.5209 19.2105 12.9374 18.7415 13.1714L17.7562 13.663C17.6377 13.7221 17.5651 13.8435 17.5713 13.9721L17.6229 15.0414C17.6474 15.5504 17.4474 16.0489 17.0741 16.4092C16.7008 16.7695 16.1841 16.9626 15.657 16.9389L14.549 16.8891C14.4162 16.8833 14.2901 16.9532 14.2288 17.0676L13.7195 18.0185C13.477 18.4711 13.0456 18.8063 12.5356 18.9382C12.0256 19.0702 11.4783 18.988 11.0339 18.713L10.1002 18.1353C9.9878 18.0658 9.84272 18.0658 9.73037 18.1353L8.79665 18.7131C8.49143 18.9019 8.13748 18.9998 7.78054 18.9998ZM5.29696 15.4043C5.99593 15.4043 6.64514 15.7829 6.9681 16.3859L7.47742 17.3368C7.53787 17.4497 7.63846 17.4902 7.69306 17.5044C7.7477 17.5185 7.85579 17.5319 7.9666 17.4633L8.90032 16.8856C9.51688 16.5041 10.3137 16.5041 10.9303 16.8856L11.864 17.4633C11.9748 17.5319 12.0829 17.5184 12.1375 17.5043C12.1921 17.4902 12.2927 17.4497 12.3532 17.3368L12.8625 16.3859C13.1988 15.7579 13.8892 15.3735 14.6205 15.4063L15.7284 15.456C15.8592 15.4619 15.9466 15.3981 15.9866 15.3595C16.0266 15.321 16.0927 15.2373 16.0866 15.1103L16.035 14.0411C16.001 13.3349 16.3995 12.6689 17.05 12.3443L18.0353 11.8527C18.1522 11.7944 18.1942 11.6973 18.2089 11.6446C18.2235 11.5919 18.2374 11.4875 18.1664 11.3806L17.5678 10.4794C17.1725 9.8843 17.1725 9.11524 17.5678 8.5202L18.1664 7.61903C18.2374 7.51204 18.2235 7.40768 18.2089 7.35502C18.1942 7.30232 18.1522 7.2052 18.0353 7.14686L17.05 6.65529C16.3994 6.33068 16.001 5.66471 16.035 4.95856L16.0866 3.88924C16.0927 3.76232 16.0266 3.67867 15.9866 3.64011C15.9466 3.60151 15.8606 3.53794 15.7284 3.54362L14.6205 3.59335C13.8889 3.62619 13.1988 3.24168 12.8625 2.61372L12.3533 1.66282C12.2928 1.54993 12.1922 1.5094 12.1376 1.49526C12.0829 1.48112 11.9749 1.46769 11.8641 1.53627L10.9303 2.11402C10.3138 2.49552 9.51692 2.49552 8.90036 2.11402L7.96664 1.53631C7.85582 1.46773 7.74774 1.48116 7.6931 1.4953C7.6385 1.5094 7.53791 1.54997 7.47746 1.66282L6.96813 2.61376C6.6318 3.24168 5.94171 3.62593 5.2101 3.59335L4.1022 3.54362C3.97139 3.53761 3.88403 3.60155 3.84404 3.64011C3.80409 3.67867 3.73795 3.76232 3.74406 3.88927L3.79563 4.95856C3.82962 5.66471 3.43118 6.33071 2.78066 6.65532L1.79539 7.1469C1.67842 7.20524 1.63643 7.30236 1.62178 7.35506C1.60717 7.40772 1.59325 7.51208 1.66427 7.61907L2.26284 8.52024C2.65812 9.11532 2.65812 9.88438 2.26284 10.4794L1.66427 11.3806C1.59321 11.4876 1.60717 11.5919 1.62178 11.6446C1.63643 11.6973 1.67842 11.7944 1.79539 11.8528L2.78066 12.3443C3.43122 12.6689 3.82962 13.3349 3.79563 14.0411L3.74406 15.1104C3.73795 15.2373 3.80409 15.321 3.84404 15.3595C3.88399 15.3981 3.9702 15.4617 4.10224 15.456L5.21014 15.4063C5.23909 15.405 5.26808 15.4043 5.29696 15.4043Z" fill="#A2A2A2"/>
</g>
<defs>
<clipPath id="clip0_14_362">
<rect width="19.6861" height="19" fill="white" transform="translate(0.0722656)"/>
</clipPath>
</defs>
</svg>
