<svg width="38" height="40" viewBox="0 0 38 40" fill="none" xmlns="http://www.w3.org/2000/svg">
<g id="Group">
<g id="Group_2">
<path id="Vector" d="M30.4639 6.24124V0L22.563 2.38615V6.24124H30.4639Z" fill="#1B77F2"/>
<path id="Vector_2" d="M37.3817 8.57056H32.8591V16.1627H37.3817V8.57056Z" fill="#1B77F2"/>
<path id="Vector_3" d="M33.5863 32.0553C32.5646 31.994 31.7904 31.717 31.2591 31.2289C31.2478 31.2175 31.2387 31.2062 31.2274 31.1948C30.0286 33.7694 28.2259 36.008 26.001 37.7244C28.2396 39.3 32.0311 39.7904 37.3823 39.1888V32.0235C35.8725 32.1075 34.6057 32.1166 33.5863 32.0553Z" fill="#1B77F2"/>
</g>
<path id="Vector_4" d="M15.2887 8.52295C6.84517 8.52295 0 15.3681 0 23.8116C0 32.2551 6.84517 39.1003 15.2887 39.1003C23.7322 39.1003 30.5773 32.2551 30.5773 23.8116V8.52295H15.2887V8.52295ZM25.5576 23.8116C25.5576 29.483 20.9601 34.0805 15.2887 34.0805C9.61729 34.0805 5.01979 29.483 5.01979 23.8116C5.01979 18.1402 9.61729 13.5427 15.2887 13.5427H25.5576V23.8116Z" fill="#28C76F"/>
</g>
</svg>
